<svg xmlns="http://www.w3.org/2000/svg" viewBox="0 0 512 512">
  <defs>
    <linearGradient id="bg" x1="0%" y1="0%" x2="100%" y2="100%">
      <stop offset="0%" style="stop-color:#1a0800"/>
      <stop offset="100%" style="stop-color:#0d0005"/>
    </linearGradient>
    <linearGradient id="g1" x1="0%" y1="100%" x2="100%" y2="0%">
      <stop offset="0%" style="stop-color:#ff6b35"/>
      <stop offset="100%" style="stop-color:#ffcc02"/>
    </linearGradient>
    <radialGradient id="glow" cx="50%" cy="55%" r="45%">
      <stop offset="0%" style="stop-color:#ff6b35;stop-opacity:0.35"/>
      <stop offset="100%" style="stop-color:#ff6b35;stop-opacity:0"/>
    </radialGradient>
  </defs>
  <rect width="512" height="512" rx="115" fill="url(#bg)"/>
  <ellipse cx="256" cy="300" rx="210" ry="185" fill="url(#glow)"/>
  <!-- Plate -->
  <circle cx="256" cy="295" r="148" fill="none" stroke="rgba(255,255,255,0.10)" stroke-width="2"/>
  <circle cx="256" cy="295" r="108" fill="rgba(255,255,255,0.04)" stroke="rgba(255,255,255,0.07)" stroke-width="1.5"/>
  <!-- Fork -->
  <rect x="172" y="320" width="11" height="78" rx="5.5" fill="url(#g1)"/>
  <rect x="172" y="260" width="11" height="64" rx="0" fill="url(#g1)"/>
  <path d="M165 260 Q177 280 190 260" stroke="url(#g1)" stroke-width="6" fill="none" stroke-linecap="round"/>
  <rect x="166" y="188" width="6" height="58" rx="3" fill="url(#g1)"/>
  <rect x="175" y="188" width="6" height="58" rx="3" fill="url(#g1)"/>
  <rect x="184" y="188" width="6" height="58" rx="3" fill="url(#g1)"/>
  <!-- Knife -->
  <rect x="329" y="320" width="11" height="78" rx="5.5" fill="url(#g1)"/>
  <rect x="329" y="240" width="11" height="82" rx="0" fill="url(#g1)" opacity="0.85"/>
  <path d="M329 188 Q350 205 340 240 L329 240 Z" fill="url(#g1)" opacity="0.7"/>
  <!-- Central flame -->
  <path d="M256 178 C240 198 218 225 218 252 C218 276 235 292 256 292 C277 292 294 276 294 252 C294 225 272 198 256 178Z" fill="url(#g1)"/>
  <path d="M256 208 C246 222 236 240 236 256 C236 268 245 278 256 278 C267 278 276 268 276 256 C276 240 266 222 256 208Z" fill="#ffee88" opacity="0.55"/>
  <!-- Text -->
  <text x="256" y="354" font-family="Arial Black,sans-serif" font-weight="900" font-size="38" fill="url(#g1)" text-anchor="middle" letter-spacing="3">FOOD</text>
  <text x="256" y="385" font-family="Arial,sans-serif" font-weight="700" font-size="22" fill="rgba(255,255,255,0.38)" text-anchor="middle" letter-spacing="9">SWIPE</text>
  <!-- Stars -->
  <circle cx="155" cy="168" r="5.5" fill="#ffcc02" opacity="0.75"/>
  <circle cx="357" cy="162" r="4.5" fill="#ff6b35" opacity="0.65"/>
  <circle cx="140" cy="212" r="3" fill="#ffcc02" opacity="0.45"/>
  <circle cx="372" cy="210" r="3" fill="#ff9a3c" opacity="0.45"/>
</svg>
